<svg width="154" height="28" viewBox="0 0 154 28" fill="none" xmlns="http://www.w3.org/2000/svg">
<path d="M37.6923 14.0006C37.6923 18.4287 34.0259 22.2967 28.9855 22.2967C28.7947 22.2967 28.6035 22.2899 28.4132 22.2764C28.1575 22.2588 27.9031 22.228 27.6505 22.186C27.4014 22.1448 27.1553 22.0922 26.9112 22.0288C26.6694 21.9658 26.4307 21.8923 26.1946 21.8094C25.9597 21.7265 25.7279 21.6342 25.4999 21.534C25.2711 21.4335 25.047 21.3243 24.8259 21.2088C24.6036 21.0921 24.386 20.9687 24.1714 20.8385C23.9557 20.7084 23.7438 20.5718 23.5354 20.43C23.3259 20.2878 23.1201 20.14 22.9178 19.9881C22.714 19.8362 22.5137 19.679 22.3164 19.5192C22.1183 19.3586 21.9233 19.1951 21.7303 19.0285C21.6328 18.9437 21.5314 18.8627 21.4439 18.7674C21.3556 18.6714 21.2781 18.5652 21.214 18.4523C21.0793 18.2152 21.0098 17.9455 21.0098 17.6747C21.0098 16.7803 21.7518 16.0548 22.6672 16.0548C22.8161 16.0548 22.9643 16.0747 23.1082 16.1137C23.2725 16.1584 23.4295 16.2281 23.5723 16.3189C23.7201 16.4135 23.8429 16.5361 23.9753 16.6487C24.0728 16.7323 24.1711 16.8152 24.2709 16.897C24.3699 16.9784 24.4701 17.0587 24.5706 17.1378C24.6712 17.2162 24.7729 17.2939 24.8758 17.3697C24.9783 17.4451 25.0815 17.5186 25.1863 17.591C25.2903 17.6627 25.3959 17.7324 25.5026 17.8007C25.6085 17.8682 25.7156 17.9335 25.8246 17.9965C25.9325 18.0595 26.0419 18.1203 26.1528 18.1781C26.2629 18.2362 26.3746 18.291 26.4875 18.3439C26.6003 18.396 26.7143 18.4456 26.8295 18.4921C26.9446 18.5382 27.0613 18.5814 27.1788 18.6211C27.2966 18.6609 27.4156 18.6973 27.5357 18.7303C27.6559 18.7629 27.7775 18.7918 27.9 18.8173C28.024 18.8425 28.1479 18.8638 28.2727 18.8811C28.3994 18.8983 28.5268 18.9119 28.6542 18.9205C28.7836 18.9295 28.9129 18.9336 29.0423 18.9336C31.9064 18.9336 34.0831 16.6352 34.0831 14.001C34.0831 11.1421 32.0208 9.06794 29.2138 9.06794C25.9486 9.06794 23.3132 11.8147 21.1369 14.001L18.8458 16.2987C15.9244 19.1576 12.8887 22.2967 8.24855 22.2967C3.6084 22.2967 0 18.8211 0 14.0002C0 9.57212 3.66636 5.7041 8.70685 5.7041C8.89761 5.7041 9.08876 5.71085 9.27914 5.72436C9.53477 5.74199 9.78925 5.77275 10.0418 5.81477C10.2909 5.85603 10.537 5.90855 10.7811 5.97195C11.0229 6.03497 11.2616 6.1085 11.4977 6.1914C11.7326 6.27431 11.9644 6.36659 12.1924 6.46675C12.4212 6.56729 12.6453 6.67645 12.8664 6.79199C13.0887 6.90866 13.3063 7.03208 13.5209 7.16225C13.7366 7.29242 13.9485 7.42897 14.1569 7.57077C14.3664 7.71295 14.5722 7.86075 14.7745 8.01268C14.9783 8.16461 15.1786 8.32179 15.3759 8.4816C15.574 8.64216 15.769 8.80572 15.962 8.97228C16.0595 9.05706 16.1609 9.13809 16.2484 9.23337C16.3367 9.32941 16.4142 9.43557 16.4783 9.54848C16.613 9.78557 16.6825 10.0553 16.6825 10.3261C16.6825 11.2205 15.9405 11.946 15.0251 11.946C14.8762 11.946 14.728 11.9261 14.5841 11.8871C14.4198 11.8424 14.2628 11.7727 14.12 11.6819C13.9723 11.5873 13.8494 11.4647 13.717 11.3521C13.6195 11.2685 13.5213 11.1856 13.4215 11.1038C13.3224 11.0224 13.2222 10.9421 13.1217 10.863C13.0211 10.7846 12.9194 10.7069 12.8165 10.6311C12.7141 10.5557 12.6108 10.4822 12.506 10.4098C12.402 10.3381 12.2964 10.2684 12.1897 10.2001C12.0838 10.1326 11.9767 10.0673 11.8677 10.0043C11.7598 9.94125 11.6505 9.88048 11.5395 9.82271C11.4294 9.76456 11.3177 9.70979 11.2048 9.6569C11.092 9.60475 10.978 9.55524 10.8628 9.50872C10.7477 9.46258 10.631 9.41944 10.5135 9.37967C10.3957 9.33991 10.2767 9.30352 10.1566 9.27051C10.0364 9.23787 9.91477 9.20899 9.79232 9.18348C9.66835 9.15834 9.54437 9.13696 9.41962 9.11971C9.29296 9.10245 9.16553 9.08894 9.03809 9.08032C8.90874 9.07131 8.77939 9.06719 8.65004 9.06719C5.78588 9.06719 3.60917 11.3656 3.60917 13.9998C3.60917 16.8587 5.6715 18.9329 8.47847 18.9329C11.7437 18.9329 14.3791 16.1861 16.5554 13.9998L18.8465 11.7021C21.7675 8.84323 24.8032 5.7041 29.4434 5.7041C34.0835 5.7041 37.6923 9.17973 37.6923 14.0006Z" fill="#1A1A1A"/>
<path d="M54.9838 8.27792C54.1355 8.27792 53.3713 8.4197 52.6912 8.70327C52.0181 8.98008 51.4432 9.38518 50.9664 9.91855C50.4967 10.4452 50.1356 11.0832 49.8832 11.8326C49.6308 12.582 49.5046 13.426 49.5046 14.3644C49.5046 15.6067 49.7044 16.687 50.104 17.6052C50.5107 18.5166 51.1137 19.2222 51.9129 19.7218C52.7192 20.2214 53.7253 20.4712 54.9313 20.4712C55.6184 20.4712 56.2634 20.4172 56.8664 20.3092C57.4763 20.1944 58.0688 20.0526 58.6437 19.8838V21.3827C58.0828 21.5852 57.4939 21.7337 56.8769 21.8283C56.2599 21.9295 55.5272 21.9802 54.6789 21.9802C53.1154 21.9802 51.8078 21.6696 50.7561 21.0485C49.7114 20.4206 48.9262 19.5361 48.4003 18.3951C47.8815 17.2541 47.6221 15.9072 47.6221 14.3543C47.6221 13.2336 47.7833 12.2107 48.1058 11.2857C48.4354 10.354 48.9121 9.55059 49.5361 8.87543C50.1671 8.20028 50.9384 7.68041 51.8498 7.31583C52.7683 6.94449 53.82 6.75883 55.0049 6.75883C55.7831 6.75883 56.5333 6.83309 57.2555 6.98163C57.9776 7.13016 58.6297 7.34283 59.2116 7.61965L58.4965 9.07798C58.0057 8.86193 57.4658 8.67626 56.8769 8.52098C56.2949 8.35894 55.6639 8.27792 54.9838 8.27792Z" fill="#1A1A1A"/>
<path d="M63.4709 21.7776H61.7146V6.01953H63.4709V21.7776Z" fill="#1A1A1A"/>
<path d="M71.6004 10.4755C72.582 10.4755 73.4234 10.6848 74.1245 11.1034C74.8256 11.522 75.362 12.1094 75.7335 12.8656C76.1051 13.615 76.2909 14.4927 76.2909 15.4987V16.5418H68.3297C68.3507 17.8449 68.6873 18.8373 69.3393 19.5192C69.9914 20.2011 70.9098 20.5421 72.0947 20.5421C72.8239 20.5421 73.4689 20.478 74.0298 20.3497C74.5907 20.2214 75.1726 20.0324 75.7756 19.7826V21.2611C75.1937 21.5109 74.6153 21.6932 74.0403 21.808C73.4724 21.9228 72.7994 21.9802 72.0211 21.9802C70.9133 21.9802 69.9458 21.7641 69.1185 21.332C68.2982 20.8932 67.6601 20.2518 67.2044 19.4078C66.7487 18.5639 66.5208 17.5309 66.5208 16.3089C66.5208 15.1139 66.7276 14.0809 67.1413 13.2099C67.562 12.3322 68.1509 11.6571 68.9081 11.1845C69.6723 10.7119 70.5698 10.4755 71.6004 10.4755ZM71.5794 11.8529C70.6469 11.8529 69.9037 12.1466 69.3498 12.7339C68.7959 13.3213 68.4664 14.1416 68.3613 15.1949H74.461C74.454 14.5332 74.3453 13.9526 74.135 13.453C73.9317 12.9466 73.6197 12.555 73.199 12.2782C72.7783 11.9946 72.2385 11.8529 71.5794 11.8529Z" fill="#1A1A1A"/>
<path d="M83.5686 10.4958C84.9428 10.4958 85.9629 10.7929 86.629 11.387C87.295 11.9811 87.6281 12.9297 87.6281 14.2328V21.7776H86.3555L86.019 20.137H85.9349C85.6124 20.5421 85.2758 20.8831 84.9253 21.1599C84.5747 21.4299 84.168 21.6359 83.7053 21.7776C83.2496 21.9127 82.6887 21.9802 82.0226 21.9802C81.3215 21.9802 80.6975 21.862 80.1506 21.6257C79.6108 21.3894 79.1831 21.0316 78.8676 20.5522C78.5591 20.0729 78.4048 19.4652 78.4048 18.7293C78.4048 17.6221 78.8605 16.7714 79.772 16.1772C80.6835 15.5831 82.0717 15.259 83.9367 15.205L85.9244 15.124V14.4455C85.9244 13.4867 85.7105 12.815 85.2828 12.4301C84.8551 12.0453 84.2522 11.8529 83.4739 11.8529C82.871 11.8529 82.296 11.9373 81.7492 12.106C81.2023 12.2748 80.6835 12.474 80.1927 12.7036L79.6563 11.4275C80.1752 11.171 80.7711 10.9515 81.4442 10.7692C82.1173 10.587 82.8254 10.4958 83.5686 10.4958ZM85.9033 16.3089L84.147 16.3798C82.7097 16.4338 81.6966 16.66 81.1076 17.0583C80.5187 17.4566 80.2242 18.0204 80.2242 18.7496C80.2242 19.3842 80.4241 19.8534 80.8237 20.1573C81.2233 20.4611 81.7527 20.613 82.4117 20.613C83.4354 20.613 84.2732 20.3396 84.9253 19.7927C85.5773 19.2458 85.9033 18.4255 85.9033 17.3317V16.3089Z" fill="#1A1A1A"/>
<path d="M96.6831 10.4755C98.0503 10.4755 99.0844 10.7996 99.7855 11.4478C100.487 12.0892 100.837 13.1222 100.837 14.5467V21.7776H99.1125V14.6581C99.1125 13.7332 98.8916 13.0411 98.4499 12.582C98.0152 12.1229 97.3456 11.8934 96.4412 11.8934C95.1651 11.8934 94.2677 12.2411 93.7489 12.9365C93.23 13.6319 92.9706 14.6413 92.9706 15.9646V21.7776H91.2248V10.6781H92.6341L92.897 12.2782H92.9917C93.2371 11.8866 93.5491 11.5592 93.9277 11.2959C94.3063 11.0258 94.7304 10.8233 95.2002 10.6882C95.6699 10.5464 96.1642 10.4755 96.6831 10.4755Z" fill="#1A1A1A"/>
<path d="M113.489 17.747C113.489 18.6247 113.265 19.3808 112.816 20.0155C112.374 20.6501 111.736 21.1362 110.902 21.4738C110.074 21.8114 109.086 21.9802 107.936 21.9802C107.375 21.9802 106.839 21.9498 106.327 21.889C105.815 21.8283 105.331 21.7405 104.876 21.6257C104.427 21.5042 104.017 21.359 103.645 21.1902V18.9015C104.269 19.1648 104.967 19.4045 105.738 19.6205C106.509 19.8298 107.295 19.9345 108.094 19.9345C108.746 19.9345 109.286 19.8534 109.713 19.6914C110.148 19.5226 110.471 19.2863 110.681 18.9825C110.891 18.6719 110.996 18.3107 110.996 17.8989C110.996 17.46 110.874 17.0887 110.628 16.7849C110.383 16.481 110.011 16.2042 109.514 15.9544C109.023 15.6979 108.406 15.4244 107.663 15.1341C107.158 14.9383 106.674 14.7155 106.211 14.4657C105.756 14.2159 105.349 13.9222 104.991 13.5846C104.634 13.2471 104.35 12.8487 104.139 12.3896C103.936 11.9238 103.835 11.3769 103.835 10.749C103.835 9.9118 104.041 9.19613 104.455 8.602C104.876 8.00786 105.465 7.55213 106.222 7.23481C106.986 6.91749 107.876 6.75883 108.893 6.75883C109.699 6.75883 110.457 6.83984 111.165 7.00188C111.88 7.16392 112.581 7.39347 113.268 7.69054L112.469 9.64511C111.838 9.3953 111.224 9.19613 110.628 9.0476C110.039 8.89906 109.436 8.8248 108.819 8.8248C108.287 8.8248 107.834 8.90244 107.463 9.05773C107.091 9.21301 106.807 9.43244 106.611 9.716C106.422 9.99281 106.327 10.3236 106.327 10.7085C106.327 11.1406 106.436 11.5052 106.653 11.8022C106.877 12.0925 107.221 12.3592 107.684 12.6023C108.153 12.8453 108.756 13.1154 109.493 13.4125C110.341 13.75 111.06 14.1045 111.649 14.4758C112.244 14.8472 112.7 15.2928 113.016 15.8126C113.331 16.3258 113.489 16.9705 113.489 17.747Z" fill="#1A1A1A"/>
<path d="M118.684 21.7776H116.202V6.01953H118.684V21.7776Z" fill="#1A1A1A"/>
<path d="M126.782 10.354C128.255 10.354 129.366 10.668 130.116 11.2959C130.873 11.9238 131.252 12.9027 131.252 14.2328V21.7776H129.496L129.022 20.1876H128.938C128.609 20.5927 128.269 20.9269 127.918 21.1902C127.567 21.4536 127.161 21.6494 126.698 21.7776C126.242 21.9127 125.685 21.9802 125.026 21.9802C124.332 21.9802 123.711 21.8587 123.164 21.6156C122.618 21.3658 122.186 20.9877 121.871 20.4813C121.555 19.975 121.398 19.3336 121.398 18.5571C121.398 17.4026 121.843 16.5351 122.733 15.9544C123.631 15.3738 124.984 15.0531 126.793 14.9923L128.812 14.9214V14.3341C128.812 13.5576 128.623 13.004 128.244 12.6732C127.872 12.3424 127.347 12.1769 126.667 12.1769C126.085 12.1769 125.52 12.258 124.973 12.42C124.426 12.582 123.894 12.7812 123.375 13.0175L122.575 11.3364C123.143 11.0461 123.788 10.8098 124.511 10.6275C125.24 10.4452 125.997 10.354 126.782 10.354ZM128.801 16.4203L127.298 16.4709C126.064 16.5114 125.198 16.714 124.7 17.0786C124.202 17.4431 123.953 17.9428 123.953 18.5774C123.953 19.131 124.125 19.5361 124.469 19.7927C124.812 20.0425 125.264 20.1674 125.825 20.1674C126.681 20.1674 127.389 19.9345 127.95 19.4686C128.517 18.996 128.801 18.304 128.801 17.3925V16.4203Z" fill="#1A1A1A"/>
<path d="M139.045 20.056C139.367 20.056 139.686 20.029 140.002 19.975C140.317 19.9142 140.605 19.8433 140.864 19.7623V21.565C140.591 21.6797 140.237 21.7776 139.802 21.8587C139.367 21.9397 138.915 21.9802 138.445 21.9802C137.786 21.9802 137.194 21.8755 136.668 21.6662C136.142 21.4502 135.725 21.0822 135.417 20.5624C135.108 20.0425 134.954 19.3234 134.954 18.4052V12.3795H133.366V11.3161L135.069 10.4755L135.879 8.07538H137.436V10.5667H140.77V12.3795H137.436V18.3749C137.436 18.942 137.583 19.364 137.877 19.6408C138.172 19.9176 138.561 20.056 139.045 20.056Z" fill="#1A1A1A"/>
<path d="M147.868 10.354C148.906 10.354 149.797 10.5599 150.54 10.9718C151.283 11.3836 151.854 11.9676 152.254 12.7238C152.654 13.48 152.853 14.3847 152.853 15.4379V16.714H145.081C145.11 17.801 145.411 18.6382 145.986 19.2255C146.568 19.8129 147.381 20.1066 148.426 20.1066C149.169 20.1066 149.835 20.0391 150.424 19.9041C151.02 19.7623 151.633 19.5564 152.264 19.2863V21.2206C151.683 21.4839 151.09 21.6764 150.487 21.7979C149.884 21.9194 149.162 21.9802 148.321 21.9802C147.178 21.9802 146.172 21.7675 145.302 21.3422C144.44 20.9101 143.763 20.2687 143.273 19.418C142.789 18.5673 142.547 17.5107 142.547 16.2481C142.547 14.9923 142.768 13.9256 143.21 13.0479C143.651 12.1702 144.272 11.5018 145.071 11.0427C145.87 10.5836 146.803 10.354 147.868 10.354ZM147.868 12.1466C147.09 12.1466 146.459 12.3896 145.975 12.8757C145.499 13.3618 145.218 14.0741 145.134 15.0126H150.435C150.428 14.4522 150.329 13.956 150.14 13.5239C149.958 13.0918 149.677 12.7542 149.299 12.5111C148.927 12.2681 148.45 12.1466 147.868 12.1466Z" fill="#1A1A1A"/>
</svg>
