<svg width="214" height="40" viewBox="0 0 214 40" fill="none" xmlns="http://www.w3.org/2000/svg">
<path d="M52.3776 20.0006C52.3776 26.3264 47.2828 31.8521 40.2785 31.8521C40.0134 31.8521 39.7478 31.8425 39.4832 31.8232C39.128 31.798 38.7744 31.7541 38.4234 31.694C38.0773 31.6351 37.7354 31.5601 37.3961 31.4695C37.0601 31.3795 36.7283 31.2744 36.4003 31.156C36.0739 31.0376 35.7517 30.9057 35.4349 30.7626C35.117 30.619 34.8055 30.4631 34.4983 30.298C34.1895 30.1313 33.887 29.955 33.5889 29.7691C33.2891 29.5831 32.9947 29.388 32.7051 29.1855C32.4139 28.9824 32.128 28.7712 31.8469 28.5542C31.5637 28.3371 31.2852 28.1126 31.0111 27.8843C30.7358 27.6549 30.4649 27.4213 30.1966 27.1833C30.0611 27.0622 29.9203 26.9464 29.7987 26.8103C29.676 26.6731 29.5683 26.5215 29.4792 26.3602C29.292 26.0215 29.1955 25.6362 29.1955 25.2492C29.1955 23.9716 30.2265 22.9352 31.4986 22.9352C31.7055 22.9352 31.9114 22.9636 32.1114 23.0193C32.3397 23.0831 32.5579 23.1828 32.7563 23.3125C32.9616 23.4475 33.1323 23.6228 33.3163 23.7835C33.4518 23.903 33.5884 24.0215 33.727 24.1383C33.8646 24.2546 34.0039 24.3693 34.1436 24.4823C34.2833 24.5944 34.4247 24.7053 34.5676 24.8135C34.71 24.9213 34.8535 25.0263 34.9991 25.1297C35.1437 25.2321 35.2904 25.3318 35.4386 25.4293C35.5858 25.5258 35.7347 25.619 35.8861 25.709C36.036 25.7991 36.188 25.8859 36.3422 25.9684C36.4953 26.0515 36.6505 26.1297 36.8073 26.2053C36.9641 26.2798 37.1225 26.3505 37.2825 26.417C37.4425 26.4829 37.6047 26.5445 37.7679 26.6013C37.9316 26.6581 38.097 26.7101 38.2639 26.7573C38.4309 26.8039 38.6 26.8452 38.7701 26.8816C38.9424 26.9175 39.1147 26.9481 39.288 26.9727C39.464 26.9974 39.6411 27.0167 39.8182 27.029C39.9979 27.0418 40.1777 27.0477 40.3574 27.0477C44.3375 27.0477 47.3623 23.7642 47.3623 20.0011C47.3623 15.9169 44.4964 12.9539 40.5959 12.9539C36.0584 12.9539 32.3963 16.8778 29.372 20.0011L26.1883 23.2835C22.1287 27.3677 17.9103 31.8521 11.4623 31.8521C5.01428 31.8521 0 26.887 0 20C0 13.6742 5.09482 8.14844 12.0991 8.14844C12.3642 8.14844 12.6298 8.15808 12.8944 8.17738C13.2496 8.20256 13.6032 8.24651 13.9542 8.30653C14.3004 8.36548 14.6423 8.44051 14.9815 8.53108C15.3175 8.62111 15.6493 8.72615 15.9773 8.84458C16.3037 8.96302 16.6259 9.09485 16.9427 9.23794C17.2606 9.38156 17.5721 9.53751 17.8793 9.70257C18.1882 9.86923 18.4906 10.0455 18.7887 10.2315C19.0885 10.4175 19.3829 10.6125 19.6725 10.8151C19.9638 11.0182 20.2497 11.2294 20.5307 11.4464C20.814 11.6635 21.0924 11.888 21.3665 12.1163C21.6418 12.3457 21.9127 12.5793 22.181 12.8173C22.3165 12.9384 22.4573 13.0541 22.5789 13.1903C22.7016 13.3274 22.8093 13.4791 22.8984 13.6404C23.0856 13.9791 23.1822 14.3644 23.1822 14.7513C23.1822 16.029 22.1511 17.0654 20.879 17.0654C20.6721 17.0654 20.4662 17.037 20.2662 16.9813C20.0379 16.9175 19.8198 16.8178 19.6213 16.6881C19.416 16.5531 19.2453 16.3778 19.0613 16.2171C18.9258 16.0975 18.7893 15.9791 18.6506 15.8623C18.513 15.746 18.3738 15.6313 18.234 15.5182C18.0943 15.4062 17.9529 15.2953 17.81 15.187C17.6676 15.0793 17.5241 14.9743 17.3785 14.8709C17.2339 14.7685 17.0873 14.6688 16.939 14.5713C16.7918 14.4748 16.643 14.3816 16.4915 14.2915C16.3416 14.2015 16.1896 14.1147 16.0354 14.0322C15.8824 13.9491 15.7272 13.8709 15.5703 13.7953C15.4135 13.7208 15.2551 13.6501 15.0951 13.5836C14.9351 13.5177 14.7729 13.4561 14.6097 13.3993C14.446 13.3424 14.2806 13.2905 14.1137 13.2433C13.9467 13.1967 13.7777 13.1554 13.6075 13.119C13.4352 13.0831 13.263 13.0525 13.0896 13.0279C12.9136 13.0032 12.7365 12.9839 12.5594 12.9716C12.3797 12.9587 12.1999 12.9528 12.0202 12.9528C8.04012 12.9528 5.01534 16.2363 5.01534 19.9995C5.01534 24.0836 7.88118 27.0467 11.7818 27.0467C16.3192 27.0467 19.9814 23.1228 23.0056 19.9995L26.1893 16.7171C30.2483 12.6329 34.4668 8.14844 40.9148 8.14844C47.3628 8.14844 52.3776 13.1136 52.3776 20.0006Z" fill="#1A1A1A"/>
<path d="M76.4063 11.8259C75.2274 11.8259 74.1654 12.0284 73.2204 12.4335C72.285 12.829 71.4861 13.4077 70.8236 14.1696C70.1708 14.9219 69.6691 15.8334 69.3183 16.904C68.9676 17.9746 68.7922 19.1802 68.7922 20.5209C68.7922 22.2956 69.0699 23.8388 69.6252 25.1505C70.1903 26.4526 71.0282 27.4605 72.1389 28.1743C73.2593 28.888 74.6574 29.2449 76.3332 29.2449C77.288 29.2449 78.1843 29.1677 79.0222 29.0134C79.8699 28.8494 80.6931 28.6469 81.492 28.4057V30.5469C80.7126 30.8363 79.8942 31.0485 79.0368 31.1835C78.1795 31.3282 77.1613 31.4005 75.9825 31.4005C73.8098 31.4005 71.9928 30.9569 70.5313 30.0695C69.0796 29.1725 67.9884 27.909 67.2577 26.279C66.5368 24.649 66.1763 22.7248 66.1763 20.5064C66.1763 18.9054 66.4004 17.4441 66.8485 16.1228C67.3064 14.7917 67.969 13.644 68.8361 12.6795C69.7129 11.715 70.7846 10.9723 72.0512 10.4515C73.3275 9.92098 74.789 9.65574 76.4355 9.65574C77.517 9.65574 78.5594 9.76184 79.563 9.97403C80.5665 10.1862 81.4726 10.49 82.2812 10.8855L81.2874 12.9688C80.6054 12.6602 79.8552 12.3949 79.0368 12.1731C78.2282 11.9416 77.3513 11.8259 76.4063 11.8259Z" fill="#1A1A1A"/>
<path d="M88.2 31.1112H85.7594V8.59961H88.2V31.1112Z" fill="#1A1A1A"/>
<path d="M99.4969 14.9654C100.861 14.9654 102.03 15.2643 103.004 15.8623C103.979 16.4603 104.724 17.2995 105.24 18.3797C105.757 19.4503 106.015 20.7042 106.015 22.1413V23.6314H94.9518C94.981 25.4929 95.4487 26.9108 96.3548 27.8849C97.2609 28.8591 98.5372 29.3461 100.184 29.3461C101.197 29.3461 102.093 29.2545 102.873 29.0713C103.652 28.888 104.461 28.6179 105.299 28.2611V30.3733C104.49 30.7302 103.686 30.9906 102.887 31.1546C102.098 31.3186 101.163 31.4005 100.081 31.4005C98.5421 31.4005 97.1975 31.0919 96.0479 30.4746C94.908 29.8477 94.0214 28.9314 93.3881 27.7258C92.7548 26.5201 92.4382 25.0444 92.4382 23.2987C92.4382 21.5915 92.7256 20.1158 93.3004 18.8716C93.885 17.6177 94.7034 16.6532 95.7556 15.9781C96.8176 15.3029 98.0647 14.9654 99.4969 14.9654ZM99.4676 16.9329C98.1718 16.9329 97.1391 17.3525 96.3694 18.1916C95.5997 19.0307 95.1418 20.2026 94.9957 21.7072H103.472C103.462 20.762 103.311 19.9326 103.019 19.2188C102.736 18.4954 102.303 17.936 101.718 17.5406C101.134 17.1355 100.383 16.9329 99.4676 16.9329Z" fill="#1A1A1A"/>
<path d="M116.128 14.9943C118.038 14.9943 119.455 15.4187 120.381 16.2674C121.306 17.1162 121.769 18.4713 121.769 20.3328V31.1112H120.001L119.533 28.7674H119.416C118.968 29.3461 118.5 29.8332 118.013 30.2287C117.526 30.6145 116.961 30.9086 116.318 31.1112C115.685 31.3041 114.905 31.4005 113.98 31.4005C113.005 31.4005 112.138 31.2317 111.378 30.8942C110.628 30.5566 110.034 30.0454 109.595 29.3606C109.167 28.6758 108.952 27.8078 108.952 26.7564C108.952 25.1746 109.586 23.9594 110.852 23.1106C112.119 22.2618 114.048 21.7989 116.639 21.7217L119.402 21.606V20.6366C119.402 19.267 119.104 18.3074 118.51 17.7576C117.916 17.2078 117.078 16.9329 115.996 16.9329C115.159 16.9329 114.36 17.0535 113.6 17.2946C112.84 17.5358 112.119 17.8203 111.437 18.1482L110.691 16.3253C111.412 15.9588 112.241 15.6453 113.176 15.3849C114.111 15.1245 115.095 14.9943 116.128 14.9943ZM119.372 23.2987L116.932 23.4C114.934 23.4771 113.527 23.8002 112.708 24.3693C111.89 24.9383 111.481 25.7437 111.481 26.7854C111.481 27.692 111.758 28.3623 112.314 28.7964C112.869 29.2304 113.605 29.4474 114.52 29.4474C115.943 29.4474 117.107 29.0568 118.013 28.2755C118.919 27.4943 119.372 26.3224 119.372 24.7599V23.2987Z" fill="#1A1A1A"/>
<path d="M134.352 14.9654C136.252 14.9654 137.689 15.4283 138.663 16.3542C139.637 17.2705 140.125 18.7462 140.125 20.7813V31.1112H137.728V20.9405C137.728 19.6191 137.421 18.6305 136.807 17.9746C136.203 17.3187 135.273 16.9908 134.016 16.9908C132.243 16.9908 130.996 17.4875 130.275 18.481C129.554 19.4744 129.193 20.9164 129.193 22.8068V31.1112H126.767V15.2547H128.725L129.091 17.5406H129.222C129.563 16.9812 129.997 16.5134 130.523 16.1372C131.049 15.7514 131.639 15.4621 132.291 15.2692C132.944 15.0666 133.631 14.9654 134.352 14.9654Z" fill="#1A1A1A"/>
<path d="M157.706 25.3531C157.706 26.6069 157.394 27.6872 156.77 28.5938C156.156 29.5005 155.27 30.1949 154.11 30.6772C152.961 31.1594 151.587 31.4005 149.989 31.4005C149.21 31.4005 148.464 31.3571 147.753 31.2703C147.042 31.1835 146.37 31.0581 145.736 30.8942C145.113 30.7206 144.543 30.5132 144.027 30.2721V27.0024C144.894 27.3785 145.863 27.7209 146.935 28.0296C148.007 28.3286 149.098 28.4781 150.208 28.4781C151.115 28.4781 151.865 28.3623 152.459 28.1309C153.063 27.8897 153.511 27.5522 153.804 27.1181C154.096 26.6745 154.242 26.1584 154.242 25.5701C154.242 24.9432 154.071 24.4127 153.73 23.9787C153.389 23.5446 152.873 23.1492 152.181 22.7923C151.499 22.4258 150.642 22.0352 149.609 21.6204C148.908 21.3407 148.236 21.0224 147.592 20.6656C146.959 20.3087 146.394 19.8892 145.897 19.4069C145.4 18.9246 145.006 18.3556 144.713 17.6997C144.431 17.0342 144.29 16.253 144.29 15.356C144.29 14.16 144.577 13.1376 145.152 12.2888C145.736 11.4401 146.555 10.789 147.607 10.3357C148.669 9.8824 149.906 9.65574 151.319 9.65574C152.44 9.65574 153.492 9.77148 154.476 10.003C155.47 10.2344 156.444 10.5624 157.399 10.9868L156.288 13.779C155.411 13.4221 154.559 13.1376 153.73 12.9254C152.912 12.7132 152.074 12.6071 151.217 12.6071C150.476 12.6071 149.848 12.7181 149.332 12.9399C148.815 13.1617 148.421 13.4752 148.148 13.8803C147.885 14.2757 147.753 14.7483 147.753 15.2981C147.753 15.9154 147.904 16.4362 148.206 16.8606C148.518 17.2753 148.995 17.6563 149.638 18.0035C150.291 18.3508 151.129 18.7366 152.152 19.161C153.331 19.6432 154.33 20.1496 155.148 20.68C155.976 21.2105 156.61 21.8471 157.048 22.5898C157.486 23.3228 157.706 24.2439 157.706 25.3531Z" fill="#1A1A1A"/>
<path d="M164.925 31.1112H161.476V8.59961H164.925V31.1112Z" fill="#1A1A1A"/>
<path d="M176.178 14.7917C178.224 14.7917 179.768 15.2402 180.811 16.1372C181.863 17.0342 182.389 18.4328 182.389 20.3328V31.1112H179.949L179.291 28.8398H179.174C178.716 29.4185 178.244 29.8959 177.756 30.2721C177.269 30.6482 176.704 30.9279 176.061 31.1112C175.428 31.3041 174.653 31.4005 173.737 31.4005C172.773 31.4005 171.911 31.2269 171.151 30.8797C170.391 30.5228 169.792 29.9827 169.353 29.2593C168.915 28.536 168.696 27.6197 168.696 26.5105C168.696 24.8612 169.314 23.6218 170.552 22.7923C171.799 21.9628 173.679 21.5047 176.193 21.4179L178.999 21.3166V20.4775C178.999 19.3683 178.736 18.5774 178.209 18.1048C177.693 17.6322 176.962 17.3959 176.017 17.3959C175.209 17.3959 174.424 17.5116 173.664 17.7431C172.904 17.9746 172.164 18.2591 171.443 18.5967L170.332 16.1951C171.121 15.7804 172.018 15.4428 173.021 15.1824C174.035 14.9219 175.087 14.7917 176.178 14.7917ZM178.984 23.4578L176.894 23.5302C175.179 23.588 173.976 23.8774 173.284 24.3982C172.593 24.9191 172.247 25.6328 172.247 26.5394C172.247 27.3303 172.485 27.909 172.963 28.2755C173.44 28.6324 174.069 28.8108 174.848 28.8108C176.037 28.8108 177.021 28.4781 177.8 27.8126C178.589 27.1374 178.984 26.1488 178.984 24.8467V23.4578Z" fill="#1A1A1A"/>
<path d="M193.218 28.6517C193.666 28.6517 194.11 28.6131 194.548 28.536C194.987 28.4491 195.386 28.3479 195.747 28.2321V30.8074C195.367 30.9713 194.875 31.1112 194.271 31.2269C193.666 31.3427 193.038 31.4005 192.385 31.4005C191.469 31.4005 190.646 31.251 189.915 30.952C189.185 30.6434 188.605 30.1177 188.176 29.3751C187.748 28.6324 187.533 27.6052 187.533 26.2935V17.6853H185.327V16.1662L187.694 14.9654L188.819 11.5365H190.982V15.0956H195.615V17.6853H190.982V26.2501C190.982 27.0603 191.187 27.6631 191.596 28.0585C192.005 28.454 192.546 28.6517 193.218 28.6517Z" fill="#1A1A1A"/>
<path d="M205.48 14.7917C206.922 14.7917 208.159 15.0859 209.192 15.6743C210.224 16.2626 211.019 17.0969 211.574 18.1772C212.129 19.2574 212.407 20.5498 212.407 22.0545V23.8774H201.607C201.646 25.4302 202.065 26.6262 202.864 27.4654C203.672 28.3045 204.803 28.724 206.254 28.724C207.287 28.724 208.213 28.6276 209.031 28.4347C209.859 28.2321 210.712 27.938 211.588 27.5522V30.3155C210.78 30.6916 209.957 30.9665 209.119 31.1401C208.281 31.3137 207.277 31.4005 206.108 31.4005C204.52 31.4005 203.122 31.0967 201.914 30.4891C200.715 29.8718 199.775 28.9555 199.093 27.7402C198.421 26.525 198.085 25.0155 198.085 23.2119C198.085 21.4179 198.392 19.894 199.006 18.6401C199.619 17.3863 200.482 16.4314 201.592 15.7755C202.703 15.1197 203.999 14.7917 205.48 14.7917ZM205.48 17.3525C204.398 17.3525 203.521 17.6997 202.849 18.3942C202.187 19.0886 201.797 20.1062 201.68 21.4468H209.046C209.036 20.6463 208.899 19.9374 208.636 19.3201C208.383 18.7028 207.993 18.2206 207.467 17.8733C206.951 17.5261 206.288 17.3525 205.48 17.3525Z" fill="#1A1A1A"/>
</svg>
