<svg width="21" height="24" viewBox="0 0 21 24" fill="none" xmlns="http://www.w3.org/2000/svg">
<path d="M9.80513 11.4619L0.0893555 22.0059C0.090268 22.0078 0.0902679 22.0096 0.0911804 22.0115C0.388667 23.1573 1.41162 23.9999 2.6253 23.9999C3.11077 23.9999 3.56612 23.8655 3.95669 23.6304L3.98771 23.6117L14.9236 17.1594L9.80513 11.4619Z" fill="#EB4335"/>
<path d="M19.6342 9.66714L19.6251 9.66061L14.9037 6.86133L9.58447 11.7013L14.9219 17.158L19.6187 14.3877C20.4418 13.9333 21.0003 13.0459 21.0003 12.0223C21.0003 11.0061 20.4491 10.1225 19.6342 9.66714Z" fill="#FABC13"/>
<path d="M0.0894282 1.99414C0.0310259 2.21435 0 2.44483 0 2.68463V21.3157C0 21.5555 0.0301133 21.7869 0.0894282 22.0062L10.1392 11.7319L0.0894282 1.99414Z" fill="#547DBF"/>
<path d="M9.87631 11.9996L14.9053 6.85918L3.98133 0.383502C3.58437 0.139964 3.12172 0 2.6253 0C1.41162 0 0.387755 0.84445 0.0893555 1.99122V1.99402L9.87631 11.9996Z" fill="#30A851"/>
</svg>
