<svg width="23" height="22" viewBox="0 0 23 22" fill="none" xmlns="http://www.w3.org/2000/svg">
<path d="M16.5 1H6.5C3.73858 1 1.5 3.23858 1.5 6V16C1.5 18.7614 3.73858 21 6.5 21H16.5C19.2614 21 21.5 18.7614 21.5 16V6C21.5 3.23858 19.2614 1 16.5 1Z" stroke="#1A1A1A" stroke-width="1.5" stroke-linecap="round" stroke-linejoin="round"/>
<path d="M15.5002 10.3703C15.6236 11.2025 15.4815 12.0525 15.094 12.7993C14.7065 13.5461 14.0933 14.1517 13.3418 14.53C12.5903 14.9082 11.7386 15.0399 10.908 14.9062C10.0773 14.7726 9.30996 14.3804 8.71503 13.7855C8.12011 13.1905 7.72793 12.4232 7.59426 11.5925C7.4606 10.7619 7.59226 9.9102 7.97052 9.15868C8.34878 8.40716 8.95438 7.79404 9.70118 7.40654C10.448 7.01904 11.2979 6.87689 12.1302 7.0003C12.9791 7.12619 13.765 7.52176 14.3719 8.12861C14.9787 8.73545 15.3743 9.52138 15.5002 10.3703Z" stroke="#1A1A1A" stroke-width="1.5" stroke-linecap="round" stroke-linejoin="round"/>
<path d="M17 5.5H17.01" stroke="#1A1A1A" stroke-width="1.5" stroke-linecap="round" stroke-linejoin="round"/>
</svg>
