<svg width="24" height="20" viewBox="0 0 24 20" fill="none" xmlns="http://www.w3.org/2000/svg">
<path d="M23 1.00964C22.0428 1.68709 20.9825 2.20543 19.86 2.54464C19.2578 1.85038 18.4565 1.35825 17.5649 1.13505C16.6734 0.911838 15.7347 0.968364 14.8764 1.29695C14.0181 1.62554 13.2816 2.21027 12.7671 2.97178C12.2525 3.73329 11.9847 4.6347 12 5.55364V6.55364C10.2412 6.59863 8.4987 6.20715 6.92818 5.41421C5.35765 4.62127 4.00805 3.45156 3 2.00964C3 2.00964 -1 11.0376 8 15.0506C5.94243 16.4535 3.48838 17.1578 1 17.0596C10 22.0756 21 17.0596 21 5.52364C20.9991 5.2441 20.9723 4.96524 20.92 4.69064C21.9411 3.68013 22.6612 2.4057 23 1.00964Z" stroke="#1A1A1A" stroke-width="1.5" stroke-linecap="round" stroke-linejoin="round"/>
</svg>
