<svg width="25" height="20" viewBox="0 0 25 20" fill="none" xmlns="http://www.w3.org/2000/svg">
<path d="M23.5 1.00964C22.5428 1.68709 21.4825 2.20543 20.36 2.54464C19.7578 1.85038 18.9565 1.35825 18.0649 1.13505C17.1734 0.911838 16.2347 0.968364 15.3764 1.29695C14.5181 1.62554 13.7816 2.21027 13.2671 2.97178C12.7525 3.73329 12.4847 4.6347 12.5 5.55364V6.55364C10.7412 6.59863 8.9987 6.20715 7.42818 5.41421C5.85765 4.62127 4.50805 3.45156 3.5 2.00964C3.5 2.00964 -0.5 11.0376 8.5 15.0506C6.44243 16.4535 3.98838 17.1578 1.5 17.0596C10.5 22.0756 21.5 17.0596 21.5 5.52364C21.4991 5.2441 21.4723 4.96524 21.42 4.69064C22.4411 3.68013 23.1612 2.4057 23.5 1.00964Z" stroke="#1A1A1A" stroke-width="1.5" stroke-linecap="round" stroke-linejoin="round"/>
</svg>
